Coordinates
version=1
nRows=17
nColumns=20
inDegrees=no

Units are S.I. units (second, meters, Newtons, ...)
If the header above contains a line with 'inDegrees', this indicates whether rotational values are in degrees (yes) or radians (no).

endheader
time	pelvis_tilt	pelvis_list	pelvis_rotation	pelvis_tx	pelvis_ty	pelvis_tz	hip_flexion_r	hip_adduction_r	hip_rotation_r	knee_extension_r	ankle_dorsiflexion_r	hip_flexion_l	hip_adduction_l	hip_rotation_l	knee_extension_l	ankle_dorsiflexion_l	lumbar_extension	lumbar_bending	lumbar_rotation
225.00000000	-0.07016508	-0.02537962	-0.06728991	0.89543807	0.99068104	-0.54121861	-0.11459912	0.01049252	-0.22259610	-0.26183616	0.38401738	0.47521807	-0.07860648	-0.34602188	-0.08931211	0.05954007	-0.01890333	0.05925976	0.01865481
225.01000000	-0.06937894	-0.02031675	-0.06994800	0.89697012	0.98962060	-0.54277122	-0.12077596	0.00014550	-0.21996195	-0.27652342	0.38791385	0.48004084	-0.07587800	-0.34802718	-0.11684129	0.05660160	-0.01920284	0.05188290	0.02330028
225.02000000	-0.06822058	-0.01459007	-0.07320946	0.89872417	0.98881605	-0.54440561	-0.12523091	-0.01154199	-0.21615860	-0.29494496	0.38919419	0.48415628	-0.07300347	-0.35029938	-0.14648255	0.05181629	-0.01948927	0.04385029	0.02854175
225.03000000	-0.06673619	-0.00824405	-0.07700538	0.90067531	0.98827478	-0.54613358	-0.12746685	-0.02453264	-0.21117688	-0.31758503	0.38675555	0.48722055	-0.06973771	-0.35260811	-0.17662439	0.04544996	-0.01974968	0.03525364	0.03419054
225.04000000	-0.06497029	-0.00135731	-0.08120394	0.90278690	0.98799329	-0.54796686	-0.12698578	-0.03872541	-0.20506826	-0.34486026	0.37943262	0.48899302	-0.06590179	-0.35479098	-0.20599077	0.03804901	-0.02000119	0.02621181	0.03999352
225.05000000	-0.06296360	0.00596548	-0.08562043	0.90501206	0.98795750	-0.54991583	-0.12332615	-0.05396217	-0.19794000	-0.37706974	0.36610892	0.48934127	-0.06138179	-0.35675430	-0.23368350	0.03038021	-0.02028939	0.01686064	0.04564751
225.06000000	-0.06075235	0.01360523	-0.09003597	0.90729636	0.98814422	-0.55198817	-0.11610237	-0.07004078	-0.18994486	-0.41434560	0.34585144	0.48822843	-0.05611841	-0.35846526	-0.25916447	0.02333204	-0.02068219	0.00734042	0.05082093
225.07000000	-0.05836923	0.02144148	-0.09422298	0.90958145	0.98852350	-0.55418744	-0.10504203	-0.08673201	-0.18126728	-0.45661054	0.31805598	0.48568758	-0.05009170	-0.35993994	-0.28219025	0.01779417	-0.02125940	-0.00221664	0.05518074
225.08000000	-0.05584549	0.02936387	-0.09797321	0.91180902	0.98906172	-0.55651189	-0.09001630	-0.10379667	-0.17210852	-0.50354896	0.28258591	0.48179034	-0.04330645	-0.36123094	-0.30271985	0.01453643	-0.02209999	-0.01169622	0.05842174
225.09000000	-0.05321388	0.03727910	-0.10112414	0.91392471	0.98972496	-0.55895336	-0.07105959	-0.12099901	-0.16267315	-0.55459664	0.23988359	0.47661771	-0.03578307	-0.36241633	-0.32081875	0.01410869	-0.02326898	-0.02100632	0.06029432
225.10000000	-0.05051139	0.04511140	-0.10357925	0.91588137	0.99048229	-0.56149659	-0.04837592	-0.13811342	-0.15315870	-0.60895184	0.19103339	0.47023944	-0.02755679	-0.36358994	-0.33657984	0.01677782	-0.02480645	-0.03007470	0.06062735
225.11000000	-0.04778099	0.05279586	-0.10531905	0.91764136	0.99130859	-0.56411901	-0.02233123	-0.15492278	-0.14374898	-0.66560748	0.13775809	0.46270568	-0.01868575	-0.36485114	-0.35007467	0.02250981	-0.02672083	-0.03883940	0.05934292
225.12000000	-0.04507155	0.06026628	-0.10640115	0.91917780	0.99218663	-0.56679110	0.00656754	-0.17120994	-0.13461077	-0.72340170	0.08233718	0.45405038	-0.00926501	-0.36629320	-0.36133884	0.03099636	-0.02898770	-0.04723423	0.05646158
225.13000000	-0.04243552	0.06744079	-0.10694959	0.92047476	0.99310812	-0.56947748	0.03770436	-0.18674560	-0.12589266	-0.78108183	0.02744574	0.44430294	0.00055852	-0.36799008	-0.37038605	0.04171684	-0.03155455	-0.05517295	0.05209732
225.14000000	-0.03992426	0.07420943	-0.10713548	0.92152662	0.99407385	-0.57213888	0.07039344	-0.20127766	-0.11772505	-0.83737551	-0.02407510	0.43350212	0.01057623	-0.36998324	-0.37723843	0.05402159	-0.03435046	-0.06253664	0.04644367
225.15000000	-0.03758187	0.08042825	-0.10715204	0.92233691	0.99509282	-0.57473467	0.10392220	-0.21452748	-0.11022029	-0.89106207	-0.06949207	0.42170628	0.02051877	-0.37227109	-0.38195806	0.06722008	-0.03729884	-0.06916856	0.03975288
225.16000000	-0.03543863	0.08592250	-0.10718811	0.92291683	0.99618055	-0.57722594	0.13759345	-0.22619673	-0.10347315	-0.94103725	-0.10646251	0.40899592	0.03007060	-0.37480379	-0.38466713	0.08065964	-0.04033055	-0.07487935	0.03231135
